# xmcd
#
# Track frame offsets: 
#        150
#        21798
#        34111
#        47337
#        71417
#        87513
#        103335
#        124262
#        141255
#        172244
#        188964
#        207267
#        231392
#        250332
#        278175
#        313112
#        317721
#
# Disc length: 4647 seconds
#
# Revision: 2
# Processed by: cddbd v1.5.2PL0 Copyright (c) Steve Scherf et al.
# Submitted via: ExactAudioCopyFreeDBPlugin 1.0
#
DISCID=03122511
DTITLE=Roberta Flack - The Very Best of Roberta Flack
DYEAR=2006
DGENRE=Soul
TTITLE0=Killing Me Softly with His Song
TTITLE1=Where is the Love (with Donny Hathaway)
TTITLE2=Feel Like Makin' Love
TTITLE3=The First Time Ever I Saw Your Face
TTITLE4=And So It Goes
TTITLE5=Tonight, I Celebrate My Love (with Peabo Bryson)
TTITLE6=The Closer I Get to You (with Donny Hathaway)
TTITLE7='Til the Morming Comes
TTITLE8=Back Together Again (with Donny Hathaway)
TTITLE9=Making Love
TTITLE10=Only Heaven Can Wait (For Love)
TTITLE11=Set the Night to Music (with Maxi Priest)
TTITLE12=You Are My Heaven (with Donny Hathaway)
TTITLE13=Oasis
TTITLE14=Don't Make Me Wait Too Long
TTITLE15=And So It Goes (Reprise)
TTITLE16=Trade Winds
EXTD=Compilation
EXTT0=
EXTT1=
EXTT2=
EXTT3=
EXTT4=
EXTT5=
EXTT6=
EXTT7=
EXTT8=
EXTT9=
EXTT10=
EXTT11=
EXTT12=
EXTT13=
EXTT14=
EXTT15=
EXTT16=
PLAYORDER=
